<svg width="26" height="26" viewBox="0 0 26 26" fill="none" xmlns="http://www.w3.org/2000/svg">
<rect width="26" height="26" rx="13" fill="#97FCE4"/>
<path d="M13.037 5.25C11.539 5.25 10.1674 6.08938 9.48608 7.42307L5.98711 14.2723C5.71624 14.8025 5.57501 15.3894 5.57501 15.9848C5.57501 18.0643 7.26128 19.75 9.3414 19.75H10.38L12.168 16.25H9.3414C9.19488 16.25 9.0761 16.1313 9.0761 15.9848C9.0761 15.9428 9.08605 15.9015 9.10513 15.8642L12.6041 9.01493C12.6872 8.85233 12.8544 8.75 13.037 8.75C13.2211 8.75 13.3893 8.85391 13.4717 9.01844L16.8951 15.856C16.9141 15.8938 16.9239 15.9355 16.9239 15.9778C16.9239 16.1281 16.802 16.25 16.6517 16.25L13.9185 16.25L15.6709 19.75L16.6517 19.75C18.7356 19.75 20.425 18.0611 20.425 15.9778C20.425 15.3917 20.2884 14.8136 20.0259 14.2894L16.6025 7.45188C15.9268 6.10233 14.5466 5.25 13.037 5.25Z" fill="#1E322E"/>
</svg>
